<svg width="26" height="45" viewBox="0 0 26 45" fill="none" xmlns="http://www.w3.org/2000/svg">
<path d="M25.4434 11.6309C25.4434 13.5449 25.1016 15.2539 24.418 16.7578C23.7344 18.2422 22.8359 19.5605 21.7227 20.7129C20.6289 21.8262 19.3691 22.8711 17.9434 23.8477C16.5176 24.8242 15.0039 25.7715 13.4023 26.6895V33.2812H8.1582V24.3457C9.42773 23.623 10.7949 22.832 12.2598 21.9727C13.7441 21.1133 14.9551 20.2441 15.8926 19.3652C17.0254 18.3496 17.9043 17.3047 18.5293 16.2305C19.1543 15.1367 19.4668 13.75 19.4668 12.0703C19.4668 9.86328 18.7148 8.22266 17.2109 7.14844C15.7266 6.05469 13.8027 5.50781 11.4395 5.50781C9.33008 5.50781 7.32812 5.83984 5.43359 6.50391C3.55859 7.16797 2.07422 7.8418 0.980469 8.52539H0.6875V2.54883C2.05469 2.02148 3.7832 1.55273 5.87305 1.14258C7.98242 0.712891 9.97461 0.498047 11.8496 0.498047C16.0488 0.498047 19.3594 1.52344 21.7812 3.57422C24.2227 5.60547 25.4434 8.29102 25.4434 11.6309ZM13.8711 45H7.89453V38.8184H13.8711V45Z" fill="white"/>
</svg>
